<?xml version="1.0" standalone="no"?>
<!DOCTYPE svg PUBLIC "-//W3C//DTD SVG 20010904//EN"
 "http://www.w3.org/TR/2001/REC-SVG-20010904/DTD/svg10.dtd">
<svg version="1.0" xmlns="http://www.w3.org/2000/svg"
 width="889.000000pt" height="1280.000000pt" viewBox="0 0 889.000000 1280.000000"
 preserveAspectRatio="xMidYMid meet">
<metadata>
Created by potrace 1.15, written by Peter Selinger 2001-2017
</metadata>
<g transform="translate(0.000000,1280.000000) scale(0.100000,-0.100000)"
fill="#000000" stroke="none">
<path d="M0 6400 l0 -6400 4445 0 4445 0 0 6400 0 6400 -4445 0 -4445 0 0
-6400z m8870 0 l0 -6380 -4425 0 -4425 0 0 6380 0 6380 4425 0 4425 0 0 -6380z"/>
<path d="M4432 11911 c-156 -158 -305 -453 -356 -701 -33 -161 -39 -260 -33
-535 9 -395 51 -1623 88 -2590 29 -762 -46 -1380 -228 -1885 -69 -190 -126
-304 -186 -374 -158 -181 -323 -431 -435 -658 -196 -399 -299 -818 -318 -1294
l-7 -164 294 2 294 3 6 150 c8 170 54 488 98 670 82 338 225 643 427 915 84
112 298 333 377 388 l48 34 116 -114 c377 -370 640 -831 747 -1309 35 -159 76
-460 83 -612 l6 -127 291 2 291 3 -3 130 c-7 387 -88 770 -236 1130 -116 279
-320 610 -515 834 -30 35 -63 85 -73 110 -9 25 -35 90 -57 144 -128 311 -223
702 -265 1097 -39 361 -44 658 -21 1215 8 198 24 637 35 975 11 338 27 817 36
1064 17 487 12 610 -27 795 -57 262 -190 526 -350 695 l-66 69 -61 -62z"/>
<path d="M1190 6930 l0 -3940 913 0 914 0 28 -107 c88 -341 257 -686 477 -976
230 -303 562 -600 880 -790 l96 -57 102 58 c335 193 655 479 898 805 114 151
182 265 268 442 89 184 133 302 181 485 l36 140 914 0 913 0 0 3940 0 3940
-20 0 c-64 0 -362 -204 -588 -404 -336 -296 -647 -715 -847 -1140 -189 -401
-312 -863 -359 -1351 -47 -474 -60 -597 -96 -890 -39 -320 -74 -625 -108 -956
l-18 -177 111 -4 c125 -5 186 -23 287 -84 199 -121 308 -327 278 -521 -27
-171 -144 -309 -368 -433 -23 -13 -40 -29 -38 -34 28 -65 102 -338 127 -463 6
-35 15 -63 19 -63 16 0 188 73 240 102 237 134 404 318 497 548 61 149 77 238
78 420 0 199 -17 276 -99 445 -93 191 -219 333 -399 452 -74 49 -103 74 -113
99 -13 30 -9 73 36 436 51 414 87 742 115 1023 8 88 25 216 36 285 63 395 227
854 422 1180 70 117 235 370 242 370 3 0 5 -1399 5 -3110 l0 -3110 -1125 0
-1125 0 0 -250 0 -250 183 0 c101 0 186 -3 189 -6 9 -9 -48 -213 -92 -331 -85
-225 -219 -454 -378 -643 -44 -52 -89 -104 -101 -114 l-21 -19 2 869 3 869 34
69 c63 129 205 239 374 292 46 14 57 22 57 39 0 78 -64 461 -80 479 -10 10
-125 -27 -201 -65 -76 -38 -241 -150 -367 -248 l-103 -81 -117 92 c-132 103
-271 197 -352 238 -76 38 -190 74 -200 64 -16 -17 -88 -443 -82 -491 0 -3 35
-19 77 -34 175 -64 295 -160 356 -285 l34 -69 2 -865 3 -865 -66 68 c-120 125
-258 326 -348 505 -76 152 -197 508 -178 526 3 3 88 6 189 6 l183 0 0 250 0
250 -1125 0 -1125 0 0 3110 c0 1711 2 3110 4 3110 6 0 171 -256 246 -380 141
-233 282 -584 360 -895 45 -179 76 -385 110 -725 17 -168 53 -489 81 -715 28
-225 53 -448 55 -495 6 -103 6 -103 -126 -191 -336 -223 -533 -617 -490 -981
53 -459 304 -781 738 -948 42 -17 79 -30 82 -30 3 0 12 35 19 78 15 90 71 311
101 396 11 33 20 60 20 62 0 1 -37 25 -82 53 -235 142 -325 275 -322 476 2
149 53 256 169 363 130 118 235 163 398 170 97 4 107 6 107 23 0 39 -72 693
-115 1049 -55 456 -71 598 -90 825 -38 429 -97 733 -210 1070 -245 736 -695
1350 -1313 1792 -122 87 -251 163 -279 163 l-23 0 0 -3940z"/>
</g>
</svg>
